# xmcd
#
# Track frame offsets:
#	150
#	16606
#	35455
#	54254
#	65897
#	80290
#	94978
#	107833
#	121411
#	143957
#	164022
#
# Disc length: 2415 seconds
#
# Revision: 0
# Processed by: cddbd v1.5.2PL0 Copyright (c) Steve Scherf et al.
# Submitted via: EasyCDDAExtractor 8.2.1.1
#
DISCID=92096d0b
DTITLE=Vahtang Kikabidze - Tbilisuri Simgerebi CD2
DYEAR=1900
DGENRE=Ethnic
TTITLE0=Bedis Borbali
TTITLE1=Sad Tsahvedit Tslebo Ahalgazrdobis
TTITLE2=Tbilisuri Satrphialo
TTITLE3=Sikhvarulshi Ar Mkonia Bedi
TTITLE4=Sadats Ginda Ik Ilotse
TTITLE5=Archevani Shen Aradani Me
TTITLE6=Asi Kali Mikhvars Ertad
TTITLE7=Sheni Phehith Chemthan Mohval
TTITLE8=Mzeo Mariam
TTITLE9=Khvavilebis Kvekhana
TTITLE10=Sadgegrdzelo
EXTD=
EXTT0=
EXTT1=
EXTT2=
EXTT3=
EXTT4=
EXTT5=
EXTT6=
EXTT7=
EXTT8=
EXTT9=
EXTT10=
PLAYORDER=
